<?xml version="1.0" standalone="no"?>
<!DOCTYPE svg PUBLIC "-//W3C//DTD SVG 20010904//EN"
 "http://www.w3.org/TR/2001/REC-SVG-20010904/DTD/svg10.dtd">
<svg version="1.0" xmlns="http://www.w3.org/2000/svg"
 width="519.000000pt" height="481.000000pt" viewBox="0 0 519.000000 481.000000"
 preserveAspectRatio="xMidYMid meet">

<g transform="translate(0.000000,481.000000) scale(0.100000,-0.100000)"
fill="pink" stroke="none">
<path d="M1115 4086 c-45 -20 -82 -69 -94 -126 -6 -28 -11 -124 -11 -214 0
-180 10 -229 57 -278 36 -38 79 -48 203 -48 l105 0 70 -106 c73 -112 102 -140
133 -130 15 5 20 20 26 74 3 37 6 88 6 115 l0 47 83 0 c107 0 161 24 197 90
24 44 25 50 25 250 0 193 -1 208 -23 250 -44 87 -32 85 -412 87 -263 2 -342 0
-365 -11z m471 -170 c3 -7 -26 -76 -64 -152 -38 -76 -73 -149 -77 -161 -7 -25
-45 -32 -45 -9 0 21 26 81 92 214 57 114 81 141 94 108z m-222 -51 c5 -14 -55
-67 -94 -83 -8 -3 12 -14 50 -26 42 -14 65 -26 65 -36 0 -23 -30 -23 -105 -1
-50 16 -70 27 -75 42 -8 24 -2 32 68 80 57 41 82 47 91 24z m341 -50 c41 -31
75 -60 75 -66 0 -32 -170 -119 -206 -105 -29 11 3 40 77 70 l72 29 -29 21
c-62 45 -87 73 -81 89 4 10 9 17 12 17 3 0 39 -25 80 -55z"/>
<path d="M3083 3840 c-18 -10 -42 -39 -55 -62 -21 -40 -23 -58 -26 -227 -4
-195 4 -253 39 -303 32 -45 74 -61 175 -66 l92 -5 7 -108 c11 -172 41 -172
155 1 l71 108 122 4 c132 5 168 16 206 64 36 46 43 96 39 303 -3 219 -10 243
-78 288 -33 23 -37 23 -374 23 -321 0 -343 -1 -373 -20z m241 -182 c28 -39 18
-108 -14 -108 -15 0 -20 9 -22 43 -4 49 -13 52 -41 15 -26 -34 -34 -131 -15
-168 11 -19 22 -25 48 -25 24 0 35 -5 35 -15 0 -19 -45 -35 -78 -26 -49 12
-78 110 -57 197 22 91 106 142 144 87z m155 -7 c23 -15 5 -41 -28 -41 -40 0
-59 -32 -40 -66 7 -13 16 -24 20 -24 5 0 20 -17 34 -37 30 -45 33 -88 6 -103
-21 -11 -64 -14 -74 -4 -11 11 5 34 23 34 35 0 31 20 -14 68 -57 60 -66 97
-35 135 32 41 78 57 108 38z m160 -20 c25 -16 4 -41 -34 -41 -54 0 -57 -26 -8
-69 69 -61 76 -95 29 -140 -16 -15 -33 -21 -52 -19 -41 4 -44 34 -4 41 50 10
49 34 -4 84 -35 35 -46 52 -46 77 0 17 4 36 8 42 20 30 82 43 111 25z"/>
<path d="M4410 3346 c-66 -24 -105 -53 -153 -112 -102 -127 -120 -208 -70
-332 36 -91 43 -127 32 -168 -10 -35 -43 -58 -119 -83 -73 -23 -150 -117 -150
-183 0 -52 12 -79 81 -173 88 -122 91 -169 14 -255 -51 -58 -68 -105 -54 -155
10 -34 62 -96 106 -126 l22 -15 -67 -312 c-36 -171 -69 -308 -73 -304 -4 4
-26 59 -49 124 l-41 116 35 47 c70 91 70 164 -1 201 -36 19 -63 59 -63 91 0
10 12 45 26 78 76 179 78 208 12 256 -34 24 -51 29 -100 29 -92 0 -99 12 -113
203 -16 214 -144 339 -287 282 -12 -5 -32 8 -69 42 -59 55 -61 59 -99 211 -32
125 -56 183 -95 225 -38 40 -62 53 -171 96 -55 21 -146 58 -204 82 -94 39
-114 43 -185 44 -88 0 -126 -14 -182 -67 -29 -28 -37 -30 -110 -32 -60 -2 -91
-8 -135 -28 -70 -33 -105 -79 -147 -194 -49 -134 -75 -171 -147 -207 -78 -40
-134 -143 -134 -249 0 -68 22 -116 80 -170 45 -42 50 -50 50 -90 0 -43 -22
-83 -91 -169 -47 -59 -44 -142 11 -217 30 -42 105 -84 234 -131 l59 -22 -17
23 c-30 41 -56 105 -62 155 -8 57 7 49 24 -13 17 -60 82 -129 139 -148 53 -18
141 -21 192 -6 19 5 36 8 38 6 2 -1 -4 -83 -13 -182 -15 -159 -20 -185 -45
-234 -46 -90 -51 -109 -38 -149 7 -20 20 -48 30 -63 18 -24 18 -35 9 -150 -11
-124 -21 -184 -40 -232 -8 -23 -15 -26 -57 -26 -27 0 -88 5 -137 10 -49 6 -90
9 -91 8 -5 -6 18 -213 24 -220 3 -3 52 -8 108 -10 55 -1 96 0 90 4 -9 5 -9 10
0 19 9 9 33 9 103 0 50 -7 94 -11 96 -8 3 3 -21 12 -53 21 -91 26 -143 47
-143 58 0 11 16 9 142 -16 37 -7 65 -9 62 -4 -3 4 -10 8 -15 8 -27 0 -159 70
-159 84 0 14 9 12 63 -8 71 -26 206 -61 212 -54 3 3 -13 19 -35 37 -37 29 -53
61 -31 61 5 0 42 -15 84 -34 41 -19 95 -40 119 -47 23 -7 49 -19 56 -28 27
-33 5 -141 -29 -141 -15 0 -19 -7 -19 -32 0 -25 -3 -29 -10 -18 -6 10 -10 11
-10 3 0 -7 -7 -13 -15 -13 -15 0 -21 -25 -7 -33 15 -9 1020 38 1030 48 3 3 -6
18 -20 33 -37 39 -92 129 -114 187 -17 44 -19 78 -19 275 l0 225 28 3 c15 2
27 6 27 9 0 16 -116 380 -150 468 -54 143 -118 270 -172 343 -47 61 -47 63
-25 71 12 5 38 16 59 24 l36 15 7 -36 c15 -83 68 -143 172 -196 52 -26 83 -64
83 -103 0 -10 -7 -50 -16 -89 -9 -39 -14 -82 -11 -96 8 -28 10 -30 180 -82
135 -42 118 -24 190 -216 41 -111 43 -115 71 -115 25 0 31 5 37 30 4 17 36
165 70 329 l63 299 81 64 c44 35 126 95 182 134 57 38 107 78 113 89 17 32 11
77 -19 142 -58 127 -51 167 45 269 123 131 180 246 172 345 -5 63 -26 96 -86
137 -59 40 -65 68 -57 252 7 147 7 153 -14 174 -25 25 -104 28 -161 7z m-2146
-519 c27 -28 51 -65 65 -101 56 -150 99 -192 224 -215 107 -20 137 -47 164
-148 14 -56 28 -83 42 -83 3 0 22 38 40 85 30 75 38 85 60 86 74 3 101 -16
101 -72 0 -49 -35 -91 -96 -116 l-46 -18 6 -195 7 -195 -26 -55 c-51 -108
-113 -160 -190 -160 -69 0 -79 14 -147 195 l-34 90 -70 6 c-38 3 -82 13 -99
21 -70 38 -131 132 -161 252 -14 55 -21 68 -49 85 -19 11 -41 31 -51 45 -23
37 -14 104 19 131 22 18 25 29 30 120 3 73 11 119 30 170 46 124 105 147 181
72z"/>
<path d="M758 2756 c-56 -20 -85 -42 -116 -88 -27 -41 -27 -44 -30 -229 -4
-207 2 -232 65 -291 49 -47 91 -58 222 -58 l119 0 73 -107 c67 -99 103 -142
121 -143 23 -1 38 36 38 94 0 35 3 84 6 110 l7 46 89 0 c98 0 145 14 191 58
58 55 66 86 70 259 5 227 -18 288 -128 339 -49 23 -55 24 -370 23 -241 0 -329
-3 -357 -13z m573 -206 c12 -44 10 -278 -3 -286 -23 -15 -38 29 -38 115 l0 86
-20 -32 c-11 -18 -24 -33 -29 -33 -9 0 -36 31 -56 65 -7 12 -10 -10 -12 -79
-1 -102 -6 -118 -28 -109 -12 4 -15 29 -15 125 l0 119 -32 -3 -33 -3 0 -115
c0 -108 -1 -115 -20 -115 -19 0 -20 8 -23 113 l-3 112 -34 0 -35 0 0 -115 c0
-108 -1 -115 -20 -115 -17 0 -20 7 -20 49 0 28 -5 53 -10 56 -6 4 -29 4 -52 0
-40 -7 -40 -7 -35 -46 5 -42 -14 -82 -32 -64 -5 6 -12 68 -16 138 l-7 129 23
-4 c21 -3 24 -9 27 -55 l3 -53 45 0 44 0 0 54 c0 32 5 58 12 62 17 11 195 18
216 8 9 -4 21 -6 25 -5 16 3 49 -21 66 -50 l18 -30 23 56 c18 45 27 55 43 53
13 -2 24 -13 28 -28z m75 -20 c1 -25 2 -87 3 -138 l1 -93 56 3 c60 3 82 -12
45 -31 -27 -15 -118 -18 -132 -4 -12 12 -26 271 -15 298 3 9 14 15 23 13 14
-3 18 -14 19 -48z"/>
<path d="M1620 1663 c-25 -2 -263 -20 -530 -39 -267 -20 -534 -41 -595 -47
-106 -12 -110 -13 -113 -37 -4 -39 197 -1163 211 -1176 14 -13 1343 -30 1350
-17 2 5 -5 78 -14 163 -10 85 -23 207 -28 270 -6 63 -24 246 -40 405 -16 160
-33 326 -36 370 -10 122 -5 115 -88 113 -40 -1 -92 -3 -117 -5z m-427 -522
c58 -22 107 -101 107 -172 0 -49 -15 -87 -48 -121 -21 -23 -34 -28 -75 -28
-45 0 -54 4 -86 38 -82 86 -75 233 13 276 36 18 56 19 89 7z"/>
<path d="M2300 340 c-159 -4 -184 -7 -137 -13 126 -18 347 -7 347 18 0 3 -3 4
-7 3 -5 -1 -96 -5 -203 -8z"/>
</g>
</svg>
