<?xml version="1.0" standalone="no"?>
<!DOCTYPE svg PUBLIC "-//W3C//DTD SVG 20010904//EN"
 "http://www.w3.org/TR/2001/REC-SVG-20010904/DTD/svg10.dtd">
<svg version="1.0" xmlns="http://www.w3.org/2000/svg"
 width="500.000000pt" height="500.000000pt" viewBox="0 0 500.000000 500.000000"
 preserveAspectRatio="xMidYMid meet">
<metadata>
Created by potrace 1.14, written by Peter Selinger 2001-2017
</metadata>
<g transform="translate(0.000000,500.000000) scale(0.100000,-0.100000)"
fill="#000000" stroke="none">
<path d="M2377 4974 c-1 -1 -36 -3 -77 -5 -41 -1 -79 -4 -84 -7 -4 -2 -27 -6
-50 -7 -22 -1 -50 -5 -61 -8 -11 -3 -38 -9 -60 -12 -22 -4 -49 -8 -60 -10 -35
-6 -149 -35 -165 -42 -8 -3 -24 -8 -35 -10 -22 -3 -108 -36 -165 -61 -19 -8
-41 -15 -47 -15 -7 0 -13 -5 -13 -10 0 -6 -3 -8 -6 -5 -11 12 -398 -196 -424
-227 -7 -8 -17 -15 -22 -15 -11 0 -91 -60 -96 -72 -2 -5 -8 -8 -13 -8 -5 0
-17 -8 -28 -17 -59 -57 -97 -87 -103 -86 -4 2 -10 -6 -13 -17 -4 -11 -11 -20
-16 -20 -12 0 -83 -72 -179 -179 -36 -40 -73 -82 -82 -92 -10 -11 -18 -24 -18
-30 0 -5 -4 -7 -10 -4 -5 3 -10 -1 -10 -9 0 -9 -4 -16 -10 -16 -5 0 -10 -7
-10 -15 0 -8 -3 -15 -7 -15 -5 0 -19 -17 -33 -38 -14 -20 -29 -40 -33 -43 -5
-3 -9 -10 -9 -15 -1 -5 -12 -27 -26 -49 -62 -96 -122 -212 -115 -219 4 -3 2
-6 -4 -6 -5 0 -20 -24 -33 -52 -13 -29 -34 -76 -47 -105 -12 -28 -23 -58 -23
-65 0 -8 -4 -18 -10 -24 -5 -5 -11 -21 -14 -34 -2 -14 -5 -26 -7 -27 -1 -2 -2
-6 -3 -10 -1 -5 -4 -13 -8 -19 -4 -6 -10 -26 -13 -44 -3 -18 -10 -42 -16 -52
-6 -11 -8 -22 -5 -25 3 -4 1 -12 -5 -19 -6 -8 -9 -20 -6 -28 3 -8 2 -16 -3
-18 -5 -2 -11 -20 -12 -40 -2 -21 -5 -38 -8 -38 -3 0 -6 -8 -6 -17 -1 -10 -4
-47 -9 -83 -4 -36 -8 -81 -9 -100 -1 -19 -5 -38 -10 -42 -14 -10 -16 -368 -2
-368 6 0 5 -4 -3 -9 -11 -7 -12 -13 -3 -23 6 -8 7 -19 2 -28 -5 -8 -7 -17 -4
-21 2 -4 6 -24 9 -45 3 -22 8 -52 10 -69 6 -38 17 -114 20 -140 1 -11 3 -20 5
-20 1 0 4 -16 7 -35 2 -19 15 -75 29 -125 13 -49 27 -101 30 -115 3 -13 10
-30 16 -37 6 -7 7 -13 4 -13 -4 0 0 -10 8 -22 9 -12 16 -32 16 -44 0 -12 5
-24 10 -26 6 -2 12 -13 14 -25 4 -20 48 -123 66 -153 5 -8 24 -44 42 -80 18
-36 36 -67 41 -68 4 -2 5 -7 2 -12 -3 -4 2 -13 10 -20 8 -7 15 -19 15 -26 0
-8 5 -14 10 -14 6 0 10 -6 10 -13 0 -7 10 -27 23 -44 12 -16 31 -42 42 -58 11
-15 25 -33 32 -40 7 -7 10 -14 8 -17 -2 -2 14 -24 35 -48 22 -25 40 -48 40
-52 0 -3 14 -20 30 -36 17 -17 30 -36 30 -42 0 -6 4 -8 10 -5 5 3 10 2 10 -3
0 -15 80 -97 91 -94 6 1 8 -2 5 -7 -6 -9 60 -71 76 -71 4 0 8 -7 8 -15 0 -8 4
-15 9 -15 4 0 19 -10 33 -22 13 -13 46 -41 74 -63 27 -22 50 -43 52 -47 2 -5
10 -8 18 -8 8 0 14 -4 14 -10 0 -5 5 -10 10 -10 6 0 20 -9 32 -20 12 -10 24
-17 28 -15 5 3 10 -2 14 -10 3 -8 12 -15 20 -15 8 0 16 -4 18 -9 2 -4 30 -23
63 -41 33 -18 75 -41 93 -51 76 -43 138 -73 146 -71 5 2 16 -3 25 -11 23 -19
261 -107 301 -112 8 -1 26 -7 39 -14 19 -11 22 -11 15 1 -6 10 -5 11 7 1 8 -6
28 -13 44 -16 17 -3 45 -10 64 -16 18 -6 36 -10 40 -9 3 1 31 -3 61 -7 30 -5
58 -8 63 -7 4 1 7 -1 7 -6 0 -4 30 -7 66 -7 36 0 68 -3 70 -7 2 -3 18 -3 34 2
18 5 28 5 25 0 -3 -5 8 -7 25 -5 16 2 32 -1 35 -6 4 -5 13 -5 24 1 12 6 22 5
29 -2 9 -9 12 -9 12 0 0 8 7 9 26 2 18 -7 23 -7 18 1 -4 8 -1 8 12 2 11 -6 30
-7 44 -3 14 4 33 3 43 -2 9 -5 17 -5 17 -1 0 5 19 9 43 10 86 2 195 10 204 16
5 3 33 7 62 8 28 2 54 6 57 11 3 5 9 6 13 4 4 -3 25 0 47 5 21 5 50 12 64 15
14 2 36 9 50 14 14 5 34 11 45 13 11 2 28 7 38 10 9 4 25 10 35 14 9 3 23 7
30 9 8 1 21 6 30 10 9 4 19 8 22 9 3 1 14 5 25 10 158 64 249 106 253 117 2 4
12 8 23 8 10 0 19 5 19 10 0 6 5 10 11 10 16 0 219 123 219 132 0 5 7 8 15 8
9 0 18 7 21 15 4 8 11 15 16 15 19 0 188 143 181 153 -3 6 -2 7 3 4 6 -3 25
10 43 29 19 19 38 34 43 34 5 0 6 5 3 10 -3 6 -1 10 5 10 6 0 18 7 26 15 9 8
13 15 10 15 -3 0 11 17 32 38 20 21 55 60 77 87 22 26 45 53 50 59 6 6 32 40
58 76 27 36 54 72 62 82 7 9 11 18 9 21 -2 2 2 10 11 17 8 7 15 19 15 26 0 8
5 14 11 14 5 0 8 4 5 9 -3 5 1 12 10 15 8 3 13 10 10 15 -3 5 1 12 10 15 8 3
13 10 10 15 -3 5 1 14 9 21 8 7 13 16 10 20 -3 4 2 13 10 20 8 7 15 18 15 26
0 7 7 20 16 29 9 8 17 26 18 39 0 13 4 22 7 21 5 -4 19 24 54 110 10 22 23 54
30 70 23 54 82 239 90 287 3 15 9 37 13 50 5 13 8 34 8 48 -1 14 2 28 7 31 4
3 8 24 10 47 1 23 4 42 7 42 3 0 6 12 7 28 1 15 5 56 9 92 15 114 8 576 -8
586 -4 2 -5 13 -3 24 2 11 1 20 -3 20 -4 0 -7 15 -8 33 -1 40 -13 106 -30 170
-4 12 -7 32 -8 45 0 12 -4 22 -8 22 -5 0 -8 7 -8 16 0 21 -38 141 -55 174 -7
14 -14 28 -14 32 -4 23 -26 79 -48 121 -8 15 -11 27 -7 27 3 0 1 6 -5 13 -9
12 -69 122 -105 194 -6 13 -14 23 -18 23 -5 0 -8 7 -8 15 0 9 -6 18 -14 21 -9
3 -12 13 -9 22 4 9 3 14 -2 10 -4 -4 -19 15 -33 42 -13 27 -28 47 -33 44 -5
-3 -9 1 -9 9 0 7 -9 23 -19 34 -11 12 -17 23 -14 27 3 3 -2 8 -11 12 -9 3 -16
12 -16 20 0 8 -4 14 -9 14 -4 0 -20 17 -33 38 -14 20 -46 59 -72 86 -25 26
-46 50 -46 52 0 9 -72 74 -82 74 -6 0 -9 3 -5 6 8 8 -86 97 -165 156 -20 15
-42 34 -50 41 -7 7 -42 33 -78 57 -35 25 -73 52 -83 60 -10 8 -20 14 -23 12
-2 -1 -10 2 -17 8 -31 26 -86 58 -91 52 -3 -3 -6 0 -6 7 0 7 -4 9 -10 6 -5 -3
-10 -2 -10 4 0 5 -15 15 -34 21 -19 6 -36 14 -38 18 -4 10 -150 78 -160 75 -4
-2 -8 2 -8 7 0 6 -6 10 -13 10 -7 0 -33 10 -57 21 -24 12 -50 22 -57 23 -7 1
-16 5 -19 9 -4 4 -17 7 -29 7 -11 0 -26 5 -33 12 -7 7 -12 9 -12 5 0 -3 -12
-2 -27 4 -26 10 -52 17 -98 24 -11 2 -31 6 -45 9 -14 3 -38 8 -55 10 -16 2
-52 8 -80 12 -27 4 -61 8 -75 9 -14 2 -25 4 -25 5 0 6 -441 20 -448 14z m133
-254 c0 -5 -2 -10 -4 -10 -3 0 -8 5 -11 10 -3 6 -1 10 4 10 6 0 11 -4 11 -10z
m-52 -474 c7 -4 12 -3 12 2 0 7 23 8 93 3 4 -1 7 -5 7 -10 0 -5 -46 -9 -102
-9 -84 -1 -100 1 -86 11 17 14 57 15 76 3z m610 -1642 c1 -16 7 -38 11 -49 36
-83 78 -158 92 -163 5 -2 9 -10 9 -19 0 -8 11 -29 25 -47 14 -18 25 -36 25
-40 0 -7 12 -23 41 -54 8 -9 26 -34 38 -54 19 -33 20 -38 6 -38 -9 0 -14 4
-11 9 3 5 -1 11 -9 14 -10 4 -12 1 -9 -11 3 -9 -2 -5 -11 11 -8 15 -20 27 -26
27 -6 0 -8 4 -5 9 4 5 3 11 -1 13 -5 1 -28 30 -53 63 -25 33 -48 62 -52 63 -5
2 -8 10 -8 18 0 8 -3 14 -7 14 -14 0 -65 89 -70 122 -3 18 -6 38 -7 45 -1 7
-5 16 -9 19 -4 4 0 19 10 33 15 24 15 25 0 12 -15 -12 -17 -11 -17 9 0 17 4
21 18 16 11 -4 8 1 -8 15 l-25 21 25 -14 c16 -10 26 -26 28 -44z m-1363 18
c-2 -2 6 -13 18 -23 21 -18 21 -19 2 -14 -11 3 -8 0 7 -8 21 -10 24 -16 17
-30 -10 -17 -39 -24 -39 -9 0 5 -8 17 -17 28 -24 27 -30 53 -9 34 18 -14 22 0
6 16 -7 7 -6 11 5 11 8 0 13 -2 10 -5z m582 -388 c-3 -3 -12 -4 -19 -1 -8 3
-5 6 6 6 11 1 17 -2 13 -5z m68 -4 c4 6 13 7 23 1 9 -4 23 -6 31 -3 8 2 11 1
8 -4 -3 -5 6 -10 20 -11 14 0 30 -7 37 -13 8 -10 8 -11 -1 -6 -9 5 -11 2 -7
-8 3 -9 11 -13 16 -10 6 4 3 -5 -6 -18 -9 -14 -13 -28 -9 -33 5 -4 2 -5 -5 -1
-7 4 -10 13 -6 19 3 7 -1 3 -10 -7 -8 -10 -13 -23 -9 -29 3 -6 1 -7 -5 -3 -6
3 -13 2 -17 -4 -4 -6 -11 -8 -16 -5 -5 4 -9 1 -9 -6 0 -7 -3 -9 -7 -6 -3 4
-13 1 -22 -6 -14 -10 -14 -10 -4 4 7 9 9 20 5 24 -4 5 -1 5 6 1 6 -4 12 -2 12
3 0 6 5 10 12 9 6 -2 14 6 16 16 3 14 0 18 -15 14 -13 -4 -19 0 -19 13 0 10 3
16 6 14 4 -2 7 2 7 9 0 8 -11 13 -26 12 -17 -1 -26 4 -26 14 0 9 -8 14 -20 12
-16 -2 -17 -1 -5 7 9 6 18 6 26 0 8 -7 14 -6 19 1z"/>
<path d="M2349 2213 c-12 -16 -12 -17 2 -6 9 7 20 9 24 5 5 -4 5 -1 1 6 -9 16
-11 15 -27 -5z"/>
<path d="M2435 2180 c-3 -5 -1 -10 4 -10 6 0 11 5 11 10 0 6 -2 10 -4 10 -3 0
-8 -4 -11 -10z"/>
</g>
</svg>
